<?xml version="1.0" standalone="no"?>
<!DOCTYPE svg PUBLIC "-//W3C//DTD SVG 20010904//EN"
 "http://www.w3.org/TR/2001/REC-SVG-20010904/DTD/svg10.dtd">
<svg version="1.0" xmlns="http://www.w3.org/2000/svg"
 width="256.000000pt" height="256.000000pt" viewBox="0 0 256.000000 256.000000"
 preserveAspectRatio="xMidYMid meet">

<g transform="translate(0.000000,256.000000) scale(0.100000,-0.100000)"
fill="#000000" stroke="none">
<path d="M0 1280 l0 -1280 1280 0 1280 0 0 1280 0 1280 -1280 0 -1280 0 0
-1280z m1292 902 c-5 -76 3 -84 87 -100 72 -13 111 -41 111 -80 0 -23 -2 -24
-47 -19 -48 6 -48 6 -13 -6 47 -16 60 -25 55 -40 -2 -7 -6 -25 -10 -41 -6 -27
-8 -28 -48 -23 l-42 6 38 -16 c39 -17 45 -32 27 -77 -8 -22 -14 -24 -47 -20
l-38 4 35 -11 c19 -6 36 -12 37 -13 2 -2 -5 -27 -16 -57 -17 -51 -20 -54 -50
-53 -17 1 -28 -2 -25 -7 3 -5 13 -9 23 -9 28 0 30 -8 13 -51 -11 -28 -23 -41
-41 -45 -48 -10 -51 -13 -51 -48 0 -50 -18 -54 -22 -5 -3 39 -6 43 -33 46 -27
4 -55 26 -55 44 0 4 17 12 38 18 l37 11 -42 -5 c-39 -5 -42 -3 -52 25 -11 33
-8 35 54 53 11 4 -1 4 -27 2 -44 -4 -47 -3 -57 27 -17 49 -14 55 37 66 l47 10
-52 1 c-58 1 -60 2 -69 58 -6 38 -4 41 22 51 l29 10 -31 1 c-32 1 -44 15 -44
51 0 24 11 31 79 47 l56 13 -55 -4 c-30 -3 -63 -7 -72 -11 -14 -6 -18 -2 -18
14 0 46 77 91 156 91 44 0 56 20 54 87 -3 73 -3 76 13 70 8 -2 11 -22 9 -65z
m290 -564 c-46 -67 -162 -188 -180 -188 -17 0 -92 -67 -92 -82 0 -5 16 -22 35
-39 37 -33 45 -63 19 -73 -10 -4 -28 8 -51 34 l-36 40 -44 -41 c-36 -33 -47
-38 -59 -29 -22 19 -18 29 27 70 l41 37 -62 69 c-42 46 -75 73 -101 82 -25 9
-56 34 -89 72 -65 75 -64 88 1 25 28 -28 47 -41 41 -29 -6 11 -18 27 -27 34
-9 7 -25 27 -37 44 -15 22 -4 15 33 -21 60 -58 91 -72 43 -20 -65 71 -66 78
-1 22 37 -33 70 -71 73 -85 7 -26 131 -160 149 -160 6 0 71 61 145 136 145
146 193 185 198 159 2 -8 -10 -34 -26 -57z m-844 -487 c3 -10 0 -11 -9 -5 -25
15 -39 13 -39 -7 0 -10 7 -19 15 -19 8 0 15 -4 15 -10 0 -5 -7 -10 -15 -10 -9
0 -15 -9 -15 -23 0 -13 -6 -24 -12 -24 -9 0 -13 18 -13 57 l0 56 34 -1 c20 0
36 -6 39 -14z m165 -23 l40 -43 -6 43 c-3 24 -1 40 4 36 11 -6 12 -104 2 -104
-5 0 -23 17 -41 37 l-33 38 3 -42 c2 -25 -1 -43 -7 -43 -6 0 -10 26 -10 60 0
33 2 60 4 60 2 0 22 -19 44 -42z m165 24 c3 -11 0 -12 -16 -3 -21 11 -32 6
-32 -17 0 -9 7 -13 20 -9 13 3 20 0 20 -10 0 -10 -6 -13 -15 -9 -19 7 -32 -21
-17 -36 7 -7 17 -6 32 2 18 10 21 9 18 -2 -3 -7 -20 -13 -41 -14 l-37 -1 0 53
c0 42 4 54 18 57 27 7 45 3 50 -11z m174 9 c17 -3 38 -35 38 -56 0 -29 -36
-56 -71 -53 -22 2 -24 6 -24 58 0 58 4 61 57 51z m108 -55 c0 -36 -4 -53 -12
-53 -9 0 -13 18 -13 57 0 42 3 56 13 53 7 -3 12 -25 12 -57z m115 12 l27 -33
-5 43 c-3 24 -1 40 4 36 12 -7 12 -104 0 -104 -5 0 -23 19 -40 42 l-31 42 0
-47 c0 -26 -3 -47 -7 -47 -5 0 -8 27 -8 59 0 52 2 58 17 50 9 -5 28 -24 43
-41z m110 -8 c0 -31 -4 -57 -10 -57 -5 0 -10 26 -10 57 0 31 5 57 10 57 6 0
10 -26 10 -57z m146 0 l-6 -54 -38 44 -39 45 5 -47 c2 -27 0 -48 -5 -48 -5 0
-8 25 -7 55 1 30 7 55 12 55 6 0 23 -15 38 -32 l28 -33 1 31 c0 26 9 50 15 42
1 -2 -1 -28 -4 -58z m133 54 c9 -3 16 -13 16 -21 0 -12 -2 -12 -16 1 -18 19
-20 19 -45 6 -12 -7 -19 -21 -19 -38 0 -33 16 -52 43 -52 15 0 18 5 15 25 -4
19 -1 25 12 25 27 0 13 -49 -16 -56 -32 -8 -74 20 -74 49 0 27 9 40 35 55 24
13 28 14 49 6z m-1054 -59 c0 -30 -4 -55 -10 -55 -5 0 -10 25 -10 55 0 30 5
55 10 55 6 0 10 -25 10 -55z m-167 -152 c-20 -13 -23 -25 -23 -76 l0 -60 26
24 c48 44 89 102 76 107 -29 9 -8 22 38 22 28 0 50 -2 50 -4 0 -2 -25 -28 -55
-58 l-55 -53 52 -83 c29 -45 61 -85 71 -88 33 -11 16 -24 -31 -24 l-48 0 -43
76 c-42 72 -44 75 -62 58 -23 -21 -26 -86 -4 -108 24 -23 19 -26 -45 -26 -57
0 -78 11 -45 24 22 8 22 254 0 262 -34 14 -11 24 53 23 64 0 66 -1 45 -16z
m449 -18 c4 -39 -10 -46 -30 -15 -9 15 -23 20 -57 20 l-45 0 0 -56 0 -56 32 6
c17 3 40 14 50 23 17 15 18 14 18 -30 0 -51 -3 -55 -26 -32 -9 8 -29 15 -45
15 -29 0 -29 0 -29 -60 l0 -60 36 0 c40 0 70 14 96 44 l17 21 1 -25 c0 -14 -3
-35 -6 -47 -6 -22 -11 -23 -120 -23 -63 0 -114 3 -114 6 0 3 7 12 15 20 12 12
15 41 15 129 0 105 -2 116 -22 135 l-22 20 116 0 116 0 4 -35z m279 6 c28 -34
24 -65 -12 -95 -26 -22 -28 -26 -10 -26 23 0 61 -44 61 -72 0 -61 -54 -88
-175 -88 -78 0 -107 10 -70 24 24 9 22 242 -2 269 -18 19 -16 19 85 16 95 -4
105 -6 123 -28z m257 -23 c11 -29 32 -89 47 -133 15 -44 36 -87 46 -97 11 -9
19 -19 19 -22 0 -3 -27 -6 -60 -6 -54 0 -79 12 -48 22 9 3 9 13 2 39 -9 32
-12 34 -59 37 -38 3 -52 -1 -62 -14 -15 -21 -17 -64 -3 -64 6 0 10 -4 10 -10
0 -5 -20 -10 -45 -10 -47 0 -55 6 -30 24 21 16 105 249 94 261 -17 18 -9 25
30 25 39 0 40 -1 59 -52z m353 23 c27 -33 24 -65 -11 -94 l-29 -25 24 -6 c38
-10 60 -50 49 -89 -14 -48 -60 -67 -161 -67 -46 0 -83 3 -83 6 0 3 7 12 15 20
11 12 15 41 15 123 0 96 -3 112 -21 136 l-22 27 102 -4 c94 -3 104 -5 122 -27z
m-686 -406 c0 -11 -8 -21 -17 -23 -14 -3 -18 3 -18 23 0 20 4 26 18 23 9 -2
17 -12 17 -23z m-262 -11 c27 -10 45 -11 57 -4 55 29 154 -6 174 -62 20 -57
-38 -106 -74 -63 -15 18 -6 45 15 45 18 0 20 -16 3 -23 -10 -3 -10 -7 -1 -17
19 -21 43 -4 43 30 0 38 -39 77 -85 86 -36 6 -83 -10 -55 -20 39 -12 42 -16
12 -13 -37 4 -55 -11 -23 -20 24 -6 29 -23 7 -23 -18 0 -46 27 -46 45 0 15
-80 45 -122 45 -35 0 -48 -26 -22 -45 16 -12 17 -14 3 -15 -22 0 -43 26 -35
45 13 35 66 38 149 9z m610 17 c31 -12 40 -36 21 -56 -22 -21 -41 -19 -21 3
20 22 6 42 -29 42 -44 0 -124 -32 -124 -50 0 -25 -26 -44 -47 -35 -16 7 -15 8
5 14 35 9 28 26 -9 24 -19 -1 -25 1 -14 4 34 9 38 20 10 27 -76 19 -171 -72
-120 -114 12 -10 19 -10 28 -1 9 9 9 14 -2 20 -10 6 -10 10 -1 16 6 4 16 3 22
-3 16 -16 4 -47 -20 -50 -58 -8 -72 65 -22 113 32 31 111 46 147 27 15 -8 34
-6 79 8 71 23 67 22 97 11z m-349 -194 c-13 -34 -40 -11 -29 24 6 18 9 19 21
7 8 -8 12 -22 8 -31z"/>
<path d="M1228 2043 c18 -2 45 -2 60 0 15 2 0 4 -33 4 -33 0 -45 -2 -27 -4z"/>
<path d="M1193 1923 c20 -2 54 -2 75 0 20 2 3 4 -38 4 -41 0 -58 -2 -37 -4z"/>
<path d="M1193 1823 c15 -2 37 -2 50 0 12 2 0 4 -28 4 -27 0 -38 -2 -22 -4z"/>
<path d="M1202 1088 c2 -34 7 -43 22 -43 26 0 40 26 32 58 -5 20 -13 27 -32
27 -23 0 -25 -3 -22 -42z"/>
<path d="M1237 923 c-4 -3 -7 -28 -7 -55 0 -46 1 -48 28 -48 37 0 52 17 52 57
0 27 -5 35 -26 43 -30 12 -38 12 -47 3z"/>
<path d="M1232 733 l3 -58 35 -3 c39 -4 60 16 60 58 0 35 -29 60 -69 60 l-32
0 3 -57z"/>
<path d="M1541 839 c-7 -22 -15 -47 -18 -55 -4 -11 5 -14 35 -14 l41 0 -16 48
c-22 66 -28 69 -42 21z"/>
<path d="M1850 875 c0 -52 1 -55 24 -55 31 0 55 32 48 65 -5 28 -6 30 -44 39
-28 6 -28 6 -28 -49z"/>
<path d="M1850 730 l0 -60 33 0 c41 0 57 15 57 55 0 38 -26 65 -63 65 -26 0
-27 -2 -27 -60z"/>
</g>
</svg>
